<svg version="1.1" id="Layer_1" xmlns="http://www.w3.org/2000/svg" xmlns:xlink="http://www.w3.org/1999/xlink" x="0px" y="0px"
	 width="100%" viewBox="0 0 100 100" enable-background="new 0 0 100 100" xml:space="preserve">

<path fill="#B4D2E9" opacity="1.000000" stroke="none" 
	d="
M82.823715,85.669128 
	C77.998306,90.878296 72.601982,93.273018 65.619240,93.110458 
	C50.305828,92.753983 34.978161,92.956673 19.656889,93.038696 
	C16.783552,93.054077 14.744076,93.272293 14.829808,89.109543 
	C14.906694,85.376373 16.175236,84.885284 19.431526,84.926216 
	C33.252190,85.099922 47.076591,85.053123 60.899006,84.976044 
	C67.197052,84.940926 73.471848,84.306831 76.705940,77.767265 
	C80.463768,70.168640 77.186150,61.963871 68.586708,60.069389 
	C57.803600,57.693832 46.798393,59.165409 35.901291,59.119385 
	C29.119658,59.090744 23.292944,57.961842 18.837500,52.369991 
	C13.530029,45.708801 13.614834,38.193325 16.636871,31.153799 
	C19.294056,24.964165 24.594166,20.948421 32.057022,20.980831 
	C47.045368,21.045925 62.035564,21.107883 77.021759,20.916809 
	C80.363953,20.874193 81.059357,21.892891 81.131149,25.063873 
	C81.209084,28.506166 79.985352,29.106873 76.888275,29.066879 
	C64.399834,28.905607 51.906483,29.108091 39.418728,28.922209 
	C36.392448,28.877161 33.558125,29.549248 30.743780,30.200991 
	C26.293098,31.231674 23.883429,35.491623 23.985415,40.867287 
	C24.081099,45.910633 27.114536,48.432594 31.440826,49.998779 
	C34.771664,51.204601 38.218174,50.993736 41.652199,50.997295 
	C49.646122,51.005585 57.678642,51.503937 65.626007,50.895588 
	C82.391785,49.612213 92.188103,67.597740 84.812279,82.487091 
	C84.312828,83.495316 83.655167,84.425163 82.823715,85.669128 
z"/>
<path fill="#B4D2E9" opacity="1.000000" stroke="none" 
	d="
M18.786894,23.709026 
	C17.776287,25.057873 17.018457,26.138325 15.988311,27.607027 
	C12.968587,19.527426 22.774506,9.018363 30.705124,9.007336 
	C46.505524,8.985365 62.307156,9.104168 78.105553,8.924603 
	C81.847443,8.882073 80.865883,11.158621 81.009598,13.141964 
	C81.178818,15.477309 81.186821,17.136642 77.819763,17.083185 
	C64.850052,16.877272 51.871845,16.825632 38.903419,17.068977 
	C31.747545,17.203251 24.669161,18.236557 18.786894,23.709026 
z"/>
<path fill="#B4D2E9" opacity="1.000000" stroke="none" 
	d="
M76.544373,41.202286 
	C83.227966,45.334976 87.096092,50.710865 87.037994,59.510029 
	C83.922401,55.488297 81.171539,52.586483 77.317802,50.539040 
	C72.331627,47.889946 67.057816,47.353916 61.803925,47.117668 
	C52.495049,46.699074 43.151379,46.882313 33.827675,47.075138 
	C31.193474,47.129612 29.415237,46.264252 27.877110,44.341003 
	C26.209736,42.256145 26.562323,39.650955 27.321091,37.743649 
	C28.203506,35.525528 30.149984,37.813881 31.572660,38.055614 
	C43.444675,40.072842 55.392406,38.621017 67.296448,38.911293 
	C70.518356,38.989861 73.419098,39.514256 76.544373,41.202286 
z"/>
<path fill="#B4D2E9" opacity="1.000000" stroke="none" 
	d="
M72.713593,78.765747 
	C70.727509,80.476807 68.810608,81.037766 66.567657,81.029823 
	C50.615093,80.973373 34.659824,80.850739 18.711208,81.108047 
	C14.868814,81.170044 15.104017,79.384300 14.905176,76.688896 
	C14.664227,73.422691 15.925977,72.899551 18.847925,72.934364 
	C31.641558,73.086723 44.438271,72.954926 57.233391,73.019646 
	C63.283287,73.050247 69.266586,72.970482 74.742844,69.077316 
	C75.236816,72.669319 75.410431,75.797531 72.713593,78.765747 
z"/>
</svg>